<svg id="visual" viewBox="0 0 1920 919" width="1920" height="919" xmlns="http://www.w3.org/2000/svg" xmlns:xlink="http://www.w3.org/1999/xlink" version="1.1"><rect x="0" y="0" width="1920" height="919" fill="#2a8bbf"></rect><path d="M0 675L45.7 657.5C91.3 640 182.7 605 274.2 584.2C365.7 563.3 457.3 556.7 548.8 564.3C640.3 572 731.7 594 823 605.8C914.3 617.7 1005.7 619.3 1097 621.8C1188.3 624.3 1279.7 627.7 1371.2 635.3C1462.7 643 1554.3 655 1645.8 653.5C1737.3 652 1828.7 637 1874.3 629.5L1920 622L1920 920L1874.3 920C1828.7 920 1737.3 920 1645.8 920C1554.3 920 1462.7 920 1371.2 920C1279.7 920 1188.3 920 1097 920C1005.7 920 914.3 920 823 920C731.7 920 640.3 920 548.8 920C457.3 920 365.7 920 274.2 920C182.7 920 91.3 920 45.7 920L0 920Z" fill="#2a40bf"></path><path d="M0 637L45.7 651.7C91.3 666.3 182.7 695.7 274.2 691.2C365.7 686.7 457.3 648.3 548.8 634.2C640.3 620 731.7 630 823 629.2C914.3 628.3 1005.7 616.7 1097 614C1188.3 611.3 1279.7 617.7 1371.2 617.8C1462.7 618 1554.3 612 1645.8 610.2C1737.3 608.3 1828.7 610.7 1874.3 611.8L1920 613L1920 920L1874.3 920C1828.7 920 1737.3 920 1645.8 920C1554.3 920 1462.7 920 1371.2 920C1279.7 920 1188.3 920 1097 920C1005.7 920 914.3 920 823 920C731.7 920 640.3 920 548.8 920C457.3 920 365.7 920 274.2 920C182.7 920 91.3 920 45.7 920L0 920Z" fill="#0075e3"></path><path d="M0 712L45.7 719.8C91.3 727.7 182.7 743.3 274.2 739C365.7 734.7 457.3 710.3 548.8 709C640.3 707.7 731.7 729.3 823 743.7C914.3 758 1005.7 765 1097 752.2C1188.3 739.3 1279.7 706.7 1371.2 703C1462.7 699.3 1554.3 724.7 1645.8 730.2C1737.3 735.7 1828.7 721.3 1874.3 714.2L1920 707L1920 920L1874.3 920C1828.7 920 1737.3 920 1645.8 920C1554.3 920 1462.7 920 1371.2 920C1279.7 920 1188.3 920 1097 920C1005.7 920 914.3 920 823 920C731.7 920 640.3 920 548.8 920C457.3 920 365.7 920 274.2 920C182.7 920 91.3 920 45.7 920L0 920Z" fill="#00a5fa"></path><path d="M0 820L45.7 814.8C91.3 809.7 182.7 799.3 274.2 786.2C365.7 773 457.3 757 548.8 762.3C640.3 767.7 731.7 794.3 823 800.5C914.3 806.7 1005.7 792.3 1097 791.7C1188.3 791 1279.7 804 1371.2 798.7C1462.7 793.3 1554.3 769.7 1645.8 756.7C1737.3 743.7 1828.7 741.3 1874.3 740.2L1920 739L1920 920L1874.3 920C1828.7 920 1737.3 920 1645.8 920C1554.3 920 1462.7 920 1371.2 920C1279.7 920 1188.3 920 1097 920C1005.7 920 914.3 920 823 920C731.7 920 640.3 920 548.8 920C457.3 920 365.7 920 274.2 920C182.7 920 91.3 920 45.7 920L0 920Z" fill="#00d1ff"></path><path d="M0 824L45.7 830.5C91.3 837 182.7 850 274.2 853C365.7 856 457.3 849 548.8 844.8C640.3 840.7 731.7 839.3 823 845.2C914.3 851 1005.7 864 1097 863C1188.3 862 1279.7 847 1371.2 843.7C1462.7 840.3 1554.3 848.7 1645.8 847.5C1737.3 846.3 1828.7 835.7 1874.3 830.3L1920 825L1920 920L1874.3 920C1828.7 920 1737.3 920 1645.8 920C1554.3 920 1462.7 920 1371.2 920C1279.7 920 1188.3 920 1097 920C1005.7 920 914.3 920 823 920C731.7 920 640.3 920 548.8 920C457.3 920 365.7 920 274.2 920C182.7 920 91.3 920 45.7 920L0 920Z" fill="#0df6f0"></path></svg>